PathFileType	4	(X/Y/Z)	Patient4_TMGait_0pt7_01_right_16.trc.trc
DataRate	CameraRate	NumFrames	NumMarkers	Units	OrigDataRate	OrigDataStartFrame	OrigNumFrames
86.956521739130	86.956521739130	4	33	mm	86.956521739130	106	       141
Frame#	Time	Sacral			L.Shoulder			Chest			R.Shoulder			Neck			R.ASIS			L.ASIS			R.Thigh.Superior			R.Thigh.Lateral			R.Thigh.Inferior			R.Patella			L.Thigh.Superior			L.Thigh.Lateral			L.Thigh.Inferior			L.Patella			L.Shank.Superior			L.Shank.Lateral			L.Shank.Inferior			R.Shank.Superior			R.Shank.Lateral			R.Shank.Inferior			R.Heel			R.Midfoot.Superior			R.Midfoot.Lateral			R.Toe			L.Heel			L.Midfoot.Lateral			L.Midfoot.Superior			L.Toe			L.Elbow			L.Wrist			R.Elbow			R.Wrist			
		X1	Y1	Z1	X2	Y2	Z2	X3	Y3	Z3	X4	Y4	Z4	X5	Y5	Z5	X6	Y6	Z6	X7	Y7	Z7	X8	Y8	Z8	X9	Y9	Z9	X10	Y10	Z10	X11	Y11	Z11	X12	Y12	Z12	X13	Y13	Z13	X14	Y14	Z14	X15	Y15	Z15	X16	Y16	Z16	X17	Y17	Z17	X18	Y18	Z18	X19	Y19	Z19	X20	Y20	Z20	X21	Y21	Z21	X22	Y22	Z22	X23	Y23	Z23	X24	Y24	Z24	X25	Y25	Z25	X26	Y26	Z26	X27	Y27	Z27	X28	Y28	Z28	X29	Y29	Z29	X30	Y30	Z30	X31	Y31	Z31	X32	Y32	Z32	X33	Y33	Z33	

106	18.967500000000	820.088899009904	1008.737379254176	420.009077096534	1015.735917317821	1435.618579912162	242.422890802294	1108.075442912720	1366.115500324850	410.557918365836	1015.847245132956	1444.899401997334	578.052699112337	1010.191955643639	1498.482323509170	396.713911022097	1043.009320019101	953.015270459271	547.113651953624	1041.411933473496	965.182905718326	272.567555016527	1139.690490372528	800.966921657901	522.551128697798	1114.829282608490	677.659444920316	601.638787379232	1209.769190304989	647.426340478028	525.939108221993	1244.757100351236	542.406627097818	552.231690511058	1077.457337575306	748.748523008592	304.837491140224	980.146995388121	637.587392855427	245.929174365256	1056.182654897193	555.115862572122	311.151353303279	1050.492682162027	486.878791686161	323.360148646771	1023.610350546680	416.595572554522	315.920852854419	931.676837594119	303.220811107905	267.157822320950	978.596058310090	192.476970619952	341.842961997152	1188.194709195968	454.103027784748	559.352325814198	1082.866035986137	383.973169249263	620.490244814435	1098.733617595608	274.309919701182	573.185851541844	922.685901082475	163.861336312936	546.159512203815	1100.382311397122	147.794499530948	589.158256721660	993.588471889385	119.602952250625	619.461076389898	1188.508649784043	52.227117619962	614.435916206412	849.163208173329	38.787145729615	388.893837279122	921.454885287111	35.335246834810	306.375196602463	1004.797445968078	95.894505429420	331.487794850290	1133.270018166603	43.354502968614	300.461276457465	1056.096520148623	1094.987346450298	104.887285798318	1252.174069457273	930.894624487761	154.631948624561	942.856958114080	1105.403730152667	698.624398284696	1076.454594466650	883.385637517848	671.972525065016	
107	18.979000000000	819.644134160442	1008.827945196271	418.414690023682	1017.127552622992	1435.787192793449	241.882893003618	1107.970894096100	1365.997999122282	410.591903963566	1014.585600070503	1444.667989186455	577.433432245745	1010.006805339604	1498.452311133172	396.114460797245	1041.780389563890	953.122720849375	546.949799006271	1041.553208949362	964.949332719358	272.268401448657	1138.558809744680	801.702700021176	522.400208385500	1114.236873547611	678.280735839252	601.591046401274	1208.671750234986	648.065029800807	525.588137724667	1244.952826500658	545.395920221834	552.157612267323	1074.675658733960	747.687664041682	305.277554578674	976.181056476765	637.587275227149	245.336864963258	1050.468222559743	554.215075819776	310.985322331319	1043.851283318574	486.258301976421	323.111142378370	1016.884326429031	416.274087017313	315.552998357827	924.509411786469	303.197047672145	266.656033569689	970.878929488441	192.336656229170	341.657622248449	1193.183112647371	455.700218116019	559.767411997475	1093.294362653768	379.277871705134	622.010412943324	1115.799844296901	270.765369365712	574.785722614272	947.356702273995	149.323837616028	549.148600110438	1125.880474988027	144.393771420449	591.216569226311	1021.245399588305	109.753317746017	622.088113899990	1219.782289702897	54.620911038476	616.221166794277	841.094910137524	38.861785928538	388.824888975158	913.373258562945	35.315927809026	306.369856377104	996.772070157357	95.826089547999	331.453667547827	1125.222730187551	43.147484529773	300.501680063263	1062.841374528443	1097.268105473117	102.539980778054	1267.304332353019	945.334000900328	155.660988187938	936.542816818512	1106.054738067902	698.002729840492	1050.926951280157	872.102846618392	679.478142536250	
108	18.990500000000	819.366674742717	1008.803388442916	416.997188878653	1018.497276728070	1435.828047939607	241.510540361269	1107.942632983819	1365.762012627416	410.741748994563	1013.469986030957	1444.304661822977	576.967532457242	1009.882885476555	1498.295343526312	395.673577576452	1040.753139198044	952.985197950418	546.881396560537	1041.843676211865	964.687719385036	272.042156962716	1137.158918890262	801.599369302319	522.399115891975	1112.832940332618	678.146497351601	601.650006545865	1206.712028575484	647.666313289793	525.390631227450	1244.013237562141	547.549100242415	552.107486439291	1071.932542865936	746.570565284532	305.588979286293	972.081742716174	637.610685484626	244.728736076637	1044.597246181135	553.320535569233	310.729499084275	1037.070357764810	485.680160905143	322.753279445199	1010.015772066343	416.006587489295	315.110628438065	917.205129428760	303.191250544997	266.125206888120	963.143236977063	192.242681740104	341.421924535768	1197.301831225911	456.876552985861	560.232946610590	1103.481107532851	374.351814703850	623.648404017170	1132.811318293482	267.492718919235	576.426911630994	973.095271418044	135.196491209658	552.120471889251	1151.697075886903	141.727126199032	593.231197859045	1049.734740383089	100.624971856504	624.693732902650	1251.157764455536	58.332745009586	617.947454928964	833.029722536294	38.947251685310	388.749789265496	905.289749379384	35.295337269698	306.364750034597	988.744600405933	95.763200274596	331.404816704359	1117.168055294126	42.953170009229	300.541328547992	1069.226597237676	1099.487203381299	100.438585443614	1281.344083859231	960.262102725851	156.811331491163	930.245758702103	1106.803664975277	697.531657279572	1025.251146208089	863.082602786105	686.390307734943	
109	19.002000000000	819.265857071680	1008.644268281560	415.763764936980	1019.801565292436	1435.734597172741	241.317818262220	1107.984145220074	1365.404189040527	411.008318162664	1012.517326571078	1443.805777316881	576.674576315223	1009.816593695193	1498.002298937475	395.408016594128	1039.962163055945	952.603491258732	546.897928163572	1042.289091208894	964.397414702193	271.884143641864	1135.506167402614	800.639088343329	522.538411367171	1110.645083517796	677.259774351904	601.841047395732	1203.954092672088	646.260951418514	525.366278717205	1242.024842818320	548.861963471975	552.065746127588	1069.246533754949	745.389214720057	305.737782290733	967.855021427239	637.655920058833	244.110989741990	1038.595121108830	552.432637616433	310.382081219668	1030.176246718193	485.135798594026	322.291813780785	1003.016150212120	415.791401658445	314.603255272227	909.774326232182	303.208082062558	265.581136329824	955.385906026603	192.192749062238	341.145938379809	1200.559837700997	457.658118226677	560.739520099818	1113.332740886234	369.333803874561	625.345656266570	1149.573387973021	264.638629268937	578.048138478679	999.611536829170	121.827427270110	554.954529088014	1177.520558119685	139.954346705794	595.123961851705	1078.705657409994	92.459919700830	627.154252268896	1282.211639766698	63.419177105834	619.505950419051	824.961789567634	39.042743278999	388.673714740970	897.203126995609	35.275069116022	306.360760343799	980.713325170555	95.707482204534	331.342521502200	1109.103999360801	42.775520703757	300.579321081260	1075.296823652125	1101.620143270246	98.593522144618	1294.250784805862	975.529531931500	158.055358907987	923.856812769149	1107.710858403668	697.217481133129	999.881507026706	856.357553011049	692.506855713083	
